<?xml version="1.0" standalone="no"?>
<!DOCTYPE svg PUBLIC "-//W3C//DTD SVG 20010904//EN"
 "http://www.w3.org/TR/2001/REC-SVG-20010904/DTD/svg10.dtd">
<svg version="1.0" xmlns="http://www.w3.org/2000/svg"
 width="200.000000pt" height="200.000000pt" viewBox="0 0 200.000000 200.000000"
 preserveAspectRatio="xMidYMid meet">

<g transform="translate(0.000000,200.000000) scale(0.100000,-0.100000)"
fill="#000000" stroke="none">
<path d="M558 1990 c-138 -23 -255 -85 -359 -189 -85 -85 -136 -169 -171 -281
-23 -74 -23 -82 -23 -525 l0 -450 28 -80 c40 -111 89 -188 173 -271 82 -81
190 -142 297 -168 96 -24 885 -24 986 0 230 53 425 247 486 482 14 55 16 124
13 515 l-3 452 -27 73 c-38 106 -83 175 -165 258 -58 59 -91 82 -165 118 -149
72 -187 76 -635 75 -213 -1 -409 -5 -435 -9z m975 -472 c-11 -13 -73 -81 -137
-153 l-116 -130 152 -3 c106 -2 154 -6 160 -15 23 -37 11 -44 -297 -167 l-305
-122 -75 41 c-43 24 -81 39 -88 34 -7 -4 -39 -26 -71 -50 -32 -24 -60 -42 -61
-41 0 2 1 41 3 88 l4 85 359 194 c197 106 359 195 359 196 0 3 -105 -45 -559
-258 l-224 -105 -113 56 c-63 31 -114 60 -114 63 0 4 28 14 62 24 35 9 286 76
558 150 272 74 501 134 509 134 11 1 9 -5 -6 -21z m-988 -431 l120 -62 3 -82
c2 -46 5 -83 8 -83 2 0 33 22 67 49 l62 49 97 -49 97 -49 293 145 c161 80 296
145 300 145 10 0 10 -551 0 -566 -21 -32 -51 -34 -595 -34 -536 0 -545 0 -571
21 l-26 20 0 280 c0 217 3 279 13 279 6 -1 66 -29 132 -63z"/>
</g>
</svg>
