<svg width="500" height="500" viewBox="0 0 500 500" fill="none" xmlns="http://www.w3.org/2000/svg">
	<g clip-path="url(#clip0_5144_3840)">
		<path d="M332.718 0H166.345C74.475 0 0 74.475 0 166.345V332.718C0 424.588 74.475 499.063 166.345 499.063H332.718C424.588 499.063 499.063 424.588 499.063 332.718V166.345C499.063 74.475 424.588 0 332.718 0Z" fill="url(#paint0_radial_5144_3840)"/>
		<g style="mix-blend-mode:overlay">
			<path d="M332.718 0H166.345C74.475 0 0 74.475 0 166.345V332.718C0 424.588 74.475 499.063 166.345 499.063H332.718C424.588 499.063 499.063 424.588 499.063 332.718V166.345C499.063 74.475 424.588 0 332.718 0Z" fill="url(#paint1_radial_5144_3840)"/>
		</g>
		<path d="M399.913 207.827L250.221 267.865L197.913 236.923L273.99 192.058L392.413 192C396.548 192 399.894 195.346 399.894 199.481V207.846L399.913 207.827Z" fill="white" fill-opacity="0.4"/>
		<path d="M249.875 285.134L201.471 261.231L166.106 288.134L166.856 244.134L100.317 211.269V346.038C100.317 354.308 107.029 361.019 115.298 361.019H384.836C393.106 361.019 399.817 354.308 399.817 346.038V211.269L249.894 285.154L249.875 285.134Z" fill="white"/>
		<path d="M388.894 113.98L174.701 229.5L250.24 267.904L388.894 113.98Z" fill="white"/>
		<path d="M388.913 114.019L100.086 191.673L159.317 221.692L388.913 114.019Z" fill="white"/>
		<path d="M173.759 272.98L174.701 229.48L208.951 246.904L173.759 272.98Z" fill="white" fill-opacity="0.8"/>
	</g>
	<defs>
		<radialGradient id="paint0_radial_5144_3840" cx="0" cy="0" r="1" gradientUnits="userSpaceOnUse" gradientTransform="translate(499.063 9.77695e-05) rotate(135) scale(705.782 1205.65)">
			<stop offset="0.479057" stop-color="#BE1E2D"/>
			<stop offset="1" stop-color="#990D1A"/>
		</radialGradient>
		<radialGradient id="paint1_radial_5144_3840" cx="0" cy="0" r="1" gradientUnits="userSpaceOnUse" gradientTransform="translate(452.5 40) rotate(138.366) scale(270.936 329.86)">
			<stop stop-color="white"/>
			<stop offset="1" stop-color="#1E77AD" stop-opacity="0"/>
		</radialGradient>
		<clipPath id="clip0_5144_3840">
			<rect width="500" height="500" fill="white"/>
		</clipPath>
	</defs>
</svg>
